<svg height="512" viewBox="0 0 128 128" width="512" xmlns="http://www.w3.org/2000/svg"><g><circle cx="64" cy="63.997" fill="#54528e" r="62.25"/><circle cx="64" cy="63.997" fill="#eff4f9" r="54.25"/><path d="m100.328 41.815-14.143-14.143-22.185 22.185-22.185-22.185-14.143 14.143 22.185 22.185-22.185 22.185 14.143 14.143 22.185-22.185 22.185 22.185 14.143-14.143-22.186-22.185z" fill="#f37"/><path d="m66.475 64 20.262-20.263a1.749 1.749 0 1 0 -2.474-2.474l-20.263 20.262-20.263-20.262a1.749 1.749 0 0 0 -2.474 2.474l20.262 20.263-20.262 20.263a1.749 1.749 0 1 0 2.474 2.474l20.263-20.262 20.263 20.262a1.749 1.749 0 0 0 2.474-2.474z" fill="#cc295f"/></g></svg>