<?xml version="1.0" encoding="iso-8859-1"?>
<!-- Generator: Adobe Illustrator 19.0.0, SVG Export Plug-In . SVG Version: 6.00 Build 0)  -->
<svg version="1.1" id="Layer_1" xmlns="http://www.w3.org/2000/svg" xmlns:xlink="http://www.w3.org/1999/xlink" x="0px" y="0px"
	 viewBox="0 0 512 512" style="enable-background:new 0 0 512 512;" xml:space="preserve">
<g>
	<g>
		<path d="M255.999,411.788c-41.206,0-78.328-9.611-104.528-27.064c-30.383-20.237-45.789-50.466-45.789-89.849
			c0-9.224-7.478-16.702-16.702-16.702s-16.702,7.478-16.702,16.702c0,50.529,20.981,91.212,60.674,117.651
			c31.624,21.064,75.323,32.665,123.046,32.665c9.224,0,16.702-7.478,16.702-16.702S265.223,411.788,255.999,411.788z"/>
	</g>
</g>
<g>
	<g>
		<path d="M344.78,89.384c-3.027-1.779-6.209-3.396-9.556-4.8c-22.226-9.318-46.052-7.073-63.338-3.01
			c0.436-27.076,22.271-48.17,50.087-48.17c9.224,0,16.702-7.478,16.702-16.702C338.675,7.478,331.197,0,321.973,0
			c-22.302,0-43.224,8.44-58.912,23.767c-15.73,15.367-24.44,35.975-24.584,58.076c-17.361-4.461-42.003-7.388-65.045,2.035
			c-5.411,2.215-10.405,4.982-15.005,8.112C65.231,121.288,5.473,193.28,5.473,294.876c0,67.072,25.883,123.175,74.851,162.243
			C124.682,492.509,187.073,512,256,512s131.319-19.491,175.677-54.881c48.969-39.068,74.851-95.17,74.851-162.243
			C506.527,189.231,442.015,116.531,344.78,89.384z M186.082,114.794c18.532-7.582,40.573-2.177,52.383,1.864v10.276
			c0,9.224,7.478,16.702,16.702,16.702c9.225,0,16.702-7.478,16.702-16.702v-10.749c12.232-3.81,33.023-8.099,50.441-0.795
			c15.074,6.321,25.686,20.421,32.069,31.492c-10.26,2.611-24.053,4.595-37.118,1.609c-11.919-2.729-22.662,7.903-20.037,19.862
			c2.865,13.05,0.782,26.774-1.902,36.993c-9.089-5.419-20.215-13.758-27.301-25.047c-6.514-10.379-21.613-10.435-28.214-0.124
			c-7.201,11.251-18.379,19.485-27.503,24.814c-2.595-10.26-4.566-24.024-1.596-37.016c2.726-11.918-7.897-22.66-19.863-20.037
			c-13.086,2.872-26.851,0.769-37.079-1.923C160.258,134.992,171.011,120.96,186.082,114.794z M256,478.596
			c-100.161,0-217.124-48.116-217.124-183.72c0-63.024,27.252-114.079,76.485-146.319c-0.29,0.743-0.464,1.226-0.523,1.392
			c-2.866,8.049,0.807,16.965,8.511,20.66c1.224,0.587,24.586,11.611,52.49,12.065c0.214,27.901,11.031,51.365,11.607,52.592
			c3.642,7.765,12.569,11.511,20.664,8.665c1.279-0.45,25.596-9.18,45.648-28.585c19.881,19.582,44.121,28.521,45.397,28.982
			c8.05,2.913,17.021-0.739,20.737-8.483c0.587-1.224,11.61-24.588,12.067-52.49c27.902-0.214,51.366-11.032,52.593-11.609
			c7.736-3.628,11.485-12.51,8.692-20.584c-0.145-0.418-0.985-2.794-2.582-6.443c53.061,31.857,82.465,84.291,82.465,150.156
			C473.124,430.481,356.161,478.596,256,478.596z"/>
	</g>
</g>
<g>
</g>
<g>
</g>
<g>
</g>
<g>
</g>
<g>
</g>
<g>
</g>
<g>
</g>
<g>
</g>
<g>
</g>
<g>
</g>
<g>
</g>
<g>
</g>
<g>
</g>
<g>
</g>
<g>
</g>
</svg>
